<?xml version="1.0" ?><svg enable-background="new 0 0 100 100" id="Layer_1" version="1.1" viewBox="0 0 100 100" xml:space="preserve" xmlns="http://www.w3.org/2000/svg" xmlns:xlink="http://www.w3.org/1999/xlink"><path d="M94.97,49h-7.669c0.162-1.922,0.79-3.81,1.891-5.454c0.308-0.459,0.185-1.08-0.274-1.388  c-0.459-0.306-1.08-0.185-1.388,0.274c-1.324,1.978-2.069,4.254-2.236,6.567H71.303c0.354-4.324,2.996-7.972,7.08-9.664  c0.51-0.211,0.752-0.796,0.541-1.307s-0.799-0.751-1.307-0.541c-0.008,0.003-0.015,0.007-0.022,0.01l-0.004-0.01  c-4.084,1.693-8.531,0.979-11.839-1.827l9.902-9.902c1.742,1.51,3.861,2.591,6.179,3.06c0.067,0.014,0.134,0.02,0.199,0.02  c0.466,0,0.883-0.327,0.979-0.802c0.109-0.541-0.241-1.069-0.782-1.179c-1.928-0.39-3.693-1.279-5.157-2.517l5.455-5.455  c0.391-0.391,0.391-1.023,0-1.414s-1.023-0.391-1.414,0l-5.454,5.454c-1.246-1.479-2.137-3.262-2.518-5.208  c-0.106-0.542-0.626-0.898-1.174-0.789c-0.542,0.106-0.896,0.632-0.789,1.174c0.459,2.34,1.542,4.483,3.063,6.242l-9.902,9.902  c-2.741-3.233-3.475-7.554-1.928-11.558c0.037-0.086,0.08-0.167,0.116-0.254l0.008-0.018l-0.02-0.008  c0.209-0.51-0.033-1.094-0.542-1.304c-0.507-0.21-1.096,0.03-1.307,0.541c-0.037,0.089-0.065,0.178-0.1,0.267  c-1.742,3.937-5.328,6.477-9.566,6.815V14.731c2.307-0.161,4.578-0.896,6.555-2.208c0.46-0.305,0.586-0.926,0.28-1.386  c-0.305-0.46-0.926-0.588-1.386-0.28c-1.646,1.092-3.531,1.712-5.449,1.869V5.03c0-0.553-0.447-1-1-1s-1,0.447-1,1v7.691  c-1.919-0.167-3.801-0.798-5.44-1.901c-0.458-0.309-1.08-0.186-1.388,0.272s-0.187,1.079,0.272,1.388  c1.973,1.326,4.245,2.074,6.556,2.246v13.997c-4.311-0.364-7.946-3.002-9.634-7.077c-0.063-0.152-0.166-0.271-0.283-0.37  c-0.001-0.001-0.003-0.002-0.004-0.003c-0.088-0.074-0.184-0.135-0.291-0.175c-0.092-0.037-0.191-0.051-0.291-0.059  c-0.018-0.001-0.035-0.009-0.054-0.009c-0.145-0.004-0.292,0.015-0.434,0.078c-0.497,0.22-0.724,0.804-0.516,1.306  c1.691,4.083,0.98,8.531-1.827,11.839l-9.888-9.888c1.521-1.755,2.606-3.893,3.068-6.23c0.106-0.542-0.246-1.068-0.787-1.176  c-0.542-0.105-1.068,0.246-1.176,0.787c-0.384,1.945-1.276,3.726-2.524,5.201l-5.473-5.473c-0.391-0.391-1.023-0.391-1.414,0  s-0.391,1.023,0,1.414l5.471,5.471c-1.468,1.236-3.235,2.122-5.167,2.507c-0.542,0.107-0.894,0.635-0.785,1.176  c0.095,0.476,0.512,0.805,0.979,0.805c0.064,0,0.131-0.006,0.196-0.02c2.323-0.463,4.448-1.541,6.195-3.05l9.889,9.889  c-3.26,2.766-7.627,3.49-11.661,1.891c-0.057-0.024-0.11-0.053-0.167-0.076l-0.018-0.007c-0.272-0.106-0.557-0.076-0.797,0.045  c-0.217,0.102-0.402,0.275-0.501,0.513c-0.211,0.511,0.031,1.096,0.541,1.307c0.055,0.023,0.111,0.038,0.167,0.06  c4.004,1.716,6.593,5.327,6.943,9.601h-13.99c-0.166-2.314-0.912-4.59-2.236-6.567c-0.309-0.46-0.93-0.581-1.388-0.274  c-0.459,0.308-0.582,0.929-0.274,1.388c1.102,1.645,1.73,3.532,1.892,5.454H5.03c-0.553,0-1,0.447-1,1s0.447,1,1,1h7.732  c-0.163,1.914-0.786,3.794-1.881,5.434c-0.307,0.46-0.183,1.081,0.276,1.388c0.171,0.113,0.364,0.168,0.555,0.168  c0.323,0,0.64-0.156,0.833-0.444c1.317-1.973,2.057-4.24,2.224-6.545h13.99c-0.352,4.279-2.947,7.893-6.961,9.605  c-0.041,0.017-0.083,0.029-0.125,0.046l-0.018,0.007l0.005,0.013c-0.495,0.218-0.731,0.791-0.523,1.294  c0.159,0.385,0.532,0.617,0.924,0.617c0.128,0,0.258-0.024,0.383-0.076c0.04-0.017,0.077-0.037,0.117-0.054  c4.044-1.618,8.424-0.894,11.693,1.878l-9.897,9.896c-1.759-1.521-3.901-2.604-6.241-3.063c-0.549-0.106-1.067,0.248-1.174,0.789  c-0.106,0.542,0.247,1.067,0.789,1.174c1.946,0.382,3.73,1.272,5.208,2.518l-5.467,5.467c-0.391,0.391-0.391,1.023,0,1.414  c0.195,0.195,0.451,0.293,0.707,0.293s0.512-0.098,0.707-0.293l5.467-5.467c1.238,1.464,2.127,3.228,2.517,5.156  c0.097,0.475,0.514,0.802,0.979,0.802c0.065,0,0.133-0.006,0.199-0.02c0.541-0.109,0.892-0.638,0.782-1.179  c-0.469-2.318-1.55-4.437-3.06-6.178l9.897-9.896c2.806,3.308,3.518,7.756,1.826,11.839c-0.211,0.511,0.031,1.096,0.541,1.307  c0.125,0.052,0.255,0.076,0.383,0.076c0.392,0,0.765-0.232,0.924-0.617c0.001-0.003,0.002-0.006,0.003-0.008l0.02,0.008  c1.688-4.074,5.323-6.713,9.634-7.077v14c-2.311,0.172-4.583,0.921-6.556,2.247c-0.459,0.309-0.58,0.93-0.272,1.388  c0.193,0.287,0.509,0.442,0.831,0.442c0.191,0,0.386-0.055,0.557-0.17c1.639-1.102,3.521-1.733,5.44-1.9v7.69c0,0.553,0.447,1,1,1  s1-0.447,1-1v-7.696c1.918,0.157,3.803,0.776,5.449,1.868c0.46,0.307,1.081,0.179,1.386-0.28c0.306-0.46,0.18-1.081-0.28-1.386  c-1.977-1.312-4.248-2.047-6.555-2.208V71.268c4.232,0.337,7.813,2.871,9.558,6.798c0.042,0.109,0.077,0.219,0.122,0.328  c0.165,0.37,0.524,0.587,0.904,0.587c0.134,0,0.27-0.027,0.4-0.083c0.003-0.001,0.005-0.004,0.008-0.005c0.001,0,0.001,0,0.002,0  c0.51-0.211,0.752-0.796,0.541-1.307c-0.044-0.106-0.096-0.206-0.142-0.31c-1.53-3.995-0.793-8.3,1.941-11.524l9.9,9.9  c-1.509,1.746-2.587,3.871-3.05,6.195c-0.108,0.541,0.243,1.068,0.785,1.176c0.065,0.014,0.132,0.02,0.196,0.02  c0.467,0,0.885-0.329,0.979-0.805c0.385-1.931,1.271-3.699,2.507-5.167l5.458,5.458c0.195,0.195,0.451,0.293,0.707,0.293  s0.512-0.098,0.707-0.293c0.391-0.391,0.391-1.023,0-1.414l-5.461-5.461c1.475-1.247,3.256-2.14,5.201-2.524  c0.541-0.107,0.894-0.634,0.787-1.176c-0.107-0.541-0.638-0.894-1.176-0.787c-2.337,0.462-4.476,1.547-6.23,3.068l-9.898-9.898  c3.308-2.805,7.755-3.515,11.839-1.826c0.129,0.053,0.262,0.077,0.394,0.075c0.011,0,0.021,0.006,0.032,0.006  c0.396,0,0.767-0.24,0.923-0.631c0.204-0.509-0.048-1.09-0.554-1.3c-4.082-1.691-6.724-5.337-7.079-9.659h13.992  c0.167,2.305,0.907,4.572,2.224,6.545c0.193,0.288,0.51,0.444,0.833,0.444c0.19,0,0.384-0.055,0.555-0.168  c0.459-0.307,0.583-0.928,0.276-1.388c-1.095-1.64-1.719-3.519-1.882-5.434h7.668c0.553,0,1-0.447,1-1S95.523,49,94.97,49z   M73.09,40.402c0.042,0,0.083-0.006,0.125-0.006c-2.283,2.249-3.688,5.257-3.92,8.605h-8.373c-0.206-2.276-1.103-4.354-2.489-6.019  l5.908-5.908C66.846,39.253,69.921,40.402,73.09,40.402z M56.366,56.328c-0.007,0.006-0.016,0.008-0.023,0.015  c-0.008,0.008-0.011,0.019-0.018,0.028c-1.624,1.622-3.858,2.627-6.313,2.628c-6.176-0.246-8.988-4.839-8.987-9.002  c0-4.164,2.812-8.756,8.947-8.999c0.006,0,0.012,0.001,0.018,0.001C49.994,40.999,49.997,41,50,41c0.002,0,0.004-0.001,0.006-0.001  c2.464,0.009,4.697,1.012,6.318,2.629c0.008,0.009,0.01,0.02,0.019,0.028c0.006,0.006,0.015,0.008,0.021,0.014  c1.609,1.626,2.606,3.859,2.607,6.321c0,0.003-0.002,0.005-0.002,0.008c0,0.003,0.001,0.005,0.001,0.007  C58.969,52.47,57.971,54.703,56.366,56.328z M59.609,26.839c-0.018,3.195,1.114,6.304,3.309,8.829l-5.899,5.899  C55.358,40.18,53.282,39.27,51,39.052v-8.317C54.349,30.508,57.359,29.11,59.609,26.839z M40.393,26.782  c2.246,2.296,5.256,3.711,8.608,3.951v8.345c-2.525,0.262-4.544,1.152-6.087,2.421l-5.828-5.828  C39.293,33.135,40.427,30.006,40.393,26.782z M26.848,40.4c0.023,0,0.046,0.003,0.069,0.003c3.168,0,6.242-1.148,8.747-3.326  l5.837,5.837c-1.446,1.77-2.245,3.938-2.431,6.086h-8.302C30.535,45.656,29.132,42.651,26.848,40.4z M26.848,59.6  c2.282-2.248,3.686-5.254,3.919-8.599h8.303c0.188,2.146,0.987,4.311,2.436,6.08l-5.831,5.831  C33.149,60.715,30.039,59.583,26.848,59.6z M40.401,73.205c0.03-3.213-1.105-6.341-3.312-8.879l5.832-5.832  c1.541,1.265,3.557,2.153,6.079,2.421v8.349C45.652,69.503,42.646,70.915,40.401,73.205z M59.611,73.164  c-2.253-2.278-5.262-3.676-8.611-3.903v-8.315c2.278-0.212,4.356-1.121,6.019-2.512l5.896,5.896  C60.722,66.853,59.591,69.961,59.611,73.164z M73.225,59.603c-3.218-0.034-6.353,1.101-8.896,3.312l-5.898-5.898  c1.384-1.664,2.282-3.742,2.489-6.018h8.374C69.529,54.346,70.934,57.352,73.225,59.603z"/></svg>